<?xml version="1.0" standalone="no"?>
<!DOCTYPE svg PUBLIC "-//W3C//DTD SVG 20010904//EN"
 "http://www.w3.org/TR/2001/REC-SVG-20010904/DTD/svg10.dtd">
<svg version="1.0" xmlns="http://www.w3.org/2000/svg"
 width="80.000000pt" height="29.000000pt" viewBox="0 0 80.000000 29.000000"
 preserveAspectRatio="xMidYMid meet">

<g transform="translate(0.000000,29.000000) scale(0.100000,-0.100000)"
fill="#000000" stroke="none">
<path d="M0 145 l0 -145 400 0 400 0 0 145 0 145 -400 0 -400 0 0 -145z m244
80 c73 -48 47 -165 -40 -181 -60 -11 -113 35 -114 99 0 77 89 124 154 82z
m131 -45 c3 -5 -3 -10 -14 -10 -14 0 -21 -6 -21 -19 0 -21 17 -37 28 -26 3 3
0 10 -8 15 -12 8 -10 10 8 10 15 0 22 -6 22 -20 0 -16 -7 -20 -30 -20 -23 0
-31 5 -36 25 -10 38 32 75 51 45z m71 2 c6 -4 11 -22 11 -41 0 -28 -2 -31 -12
-17 -15 20 -25 21 -25 1 0 -8 -4 -15 -10 -15 -11 0 -14 63 -3 73 8 9 25 9 39
-1z m78 2 c22 -8 21 -63 0 -71 -36 -13 -68 33 -44 62 14 17 21 18 44 9z m86
-4 c12 -8 9 -10 -13 -10 -24 0 -28 -4 -25 -22 2 -18 9 -22 28 -20 18 2 22 0
13 -9 -20 -20 -48 -6 -51 25 -5 38 18 55 48 36z m62 -3 c21 18 21 18 9 -4 -8
-17 -9 -29 -1 -43 13 -25 -5 -27 -19 -2 -10 16 -10 16 -11 0 0 -10 -4 -18 -10
-18 -5 0 -10 15 -10 33 0 37 13 59 18 32 3 -15 6 -15 24 2z"/>
<path d="M420 160 c0 -5 5 -10 10 -10 6 0 10 5 10 10 0 6 -4 10 -10 10 -5 0
-10 -4 -10 -10z"/>
<path d="M492 148 c2 -12 10 -23 18 -23 22 0 19 39 -3 43 -15 3 -18 -1 -15
-20z"/>
</g>
</svg>
